<svg width="180" height="102" viewBox="0 0 180 102" fill="none" xmlns="http://www.w3.org/2000/svg">
<path fill-rule="evenodd" clip-rule="evenodd" d="M0 1.18195H53.5802V38.6514L35.8858 34.8111L31.5064 55.832H0V1.18195Z" fill="#243780"/>
<path fill-rule="evenodd" clip-rule="evenodd" d="M88.2797 46.1857L89.4454 48.2442L78.3167 101.687L25.9197 90.3145L24.7539 88.2542L77.1509 99.6306L88.2797 46.1857Z" fill="#243780"/>
<path fill-rule="evenodd" clip-rule="evenodd" d="M86.1689 15.7488V17.4538H96.1879C96.0795 20.5585 95.1867 22.9437 92.773 25.0255C90.4747 26.918 87.5429 28.1677 84.534 28.1677C77.5571 28.1677 71.8405 22.2618 71.8405 15.2203C71.8405 8.36623 77.7077 2.27282 84.534 2.27282C89.064 2.27282 92.8482 4.61881 95.3373 8.40376L96.7831 7.23077C93.853 3.14223 89.7308 0.56781 84.6461 0.56781C76.6294 0.56781 70.0586 7.1558 70.0586 15.3328C70.0586 23.208 76.668 29.871 84.4238 29.871C88.3586 29.871 92.3669 28.2053 95.0397 25.2523C97.5252 22.4885 98.0451 19.3463 97.9698 15.7488H86.1689Z" fill="#2D353A"/>
<path fill-rule="evenodd" clip-rule="evenodd" d="M106.539 14.4453C105.685 14.4453 105.018 15.1274 105.018 15.9987C105.018 16.8682 105.685 17.5501 106.539 17.5501C107.393 17.5501 108.06 16.8682 108.06 15.9987C108.06 15.1274 107.393 14.4453 106.539 14.4453Z" fill="#2D353A"/>
<path fill-rule="evenodd" clip-rule="evenodd" d="M130.139 2.65124V0.946228H116.775V29.4925H130.139V27.7875H118.556V14.7275H129.842V13.0243H118.556V2.65124H130.139Z" fill="#2D353A"/>
<path fill-rule="evenodd" clip-rule="evenodd" d="M139.814 14.4454C138.959 14.4454 138.289 15.1274 138.289 15.9987C138.289 16.8682 138.959 17.5501 139.814 17.5501C140.664 17.5501 141.335 16.8682 141.335 15.9987C141.335 15.1274 140.664 14.4454 139.814 14.4454Z" fill="#2D353A"/>
<path fill-rule="evenodd" clip-rule="evenodd" d="M178.293 29.4925H180L173.986 0L163.669 25.9717L153.389 0L147.375 29.4925H149.082L153.871 5.86851H153.946L163.669 30.4387L173.429 5.86851H173.504L178.293 29.4925Z" fill="#2D353A"/>
</svg>
